<?xml version="1.0" encoding="utf-8"?>
<!-- Generator: Adobe Illustrator 22.0.0, SVG Export Plug-In . SVG Version: 6.00 Build 0)  -->
<svg version="1.1" id="Layer_1" xmlns="http://www.w3.org/2000/svg" xmlns:xlink="http://www.w3.org/1999/xlink" x="0px" y="0px"
	 viewBox="0 0 360 360" style="enable-background:new 0 0 360 360;" xml:space="preserve">
<style type="text/css">
	.st0{fill:url(#SVGID_1_);}
	.st1{fill:#92D0FF;}
	.st2{fill:url(#SVGID_2_);}
	.st3{fill:url(#SVGID_3_);}
	.st4{fill:url(#SVGID_4_);}
	.st5{fill:url(#SVGID_5_);}
	.st6{fill:url(#SVGID_6_);}
	.st7{fill:none;stroke:#B3D3F4;stroke-miterlimit:10;}
	.st8{fill:none;stroke:#B3D3F4;stroke-miterlimit:10;stroke-dasharray:3.9944,3.9944;}
	.st9{fill:#F3FAFF;}
	.st10{fill:#B3D3F4;}
	.st11{fill:#CFE0F5;}
	.st12{fill:#FFF4E1;}
	.st13{fill:#E6F1FC;}
	.st14{fill:#FC8975;}
	.st15{fill:#CC6658;}
	.st16{fill:#352E72;}
	.st17{fill:url(#SVGID_7_);}
	.st18{fill:#75A1E9;}
	.st19{fill:url(#SVGID_8_);}
	.st20{fill:none;stroke:#4A578E;stroke-width:0.5;stroke-miterlimit:10;}
	.st21{fill:#081466;}
	.st22{fill:url(#SVGID_9_);}
	.st23{fill:#2D4CBA;}
	.st24{fill:url(#SVGID_10_);}
	.st25{fill:url(#SVGID_11_);}
	.st26{fill:#FFFFFF;}
	.st27{fill:#EAC38F;}
	.st28{font-family:'ArialMT';}
	.st29{font-size:5.3819px;}
	.st30{font-size:8.0728px;}
	.st31{opacity:0.55;fill:#C9D3F4;enable-background:new    ;}
	.st32{fill:url(#SVGID_12_);}
	.st33{opacity:0.35;fill:#C9D3F4;enable-background:new    ;}
	.st34{fill:url(#SVGID_13_);}
	.st35{fill:url(#SVGID_14_);}
	.st36{fill:#352E73;}
	.st37{fill:url(#SVGID_15_);}
	.st38{opacity:0.35;fill:url(#SVGID_16_);enable-background:new    ;}
	.st39{fill:url(#SVGID_17_);}
	.st40{opacity:0.35;fill:url(#SVGID_18_);enable-background:new    ;}
	.st41{fill:url(#SVGID_19_);}
	.st42{opacity:0.75;fill:url(#SVGID_20_);enable-background:new    ;}
	.st43{opacity:0.75;fill:url(#SVGID_21_);enable-background:new    ;}
	.st44{fill:#F42A73;}
	.st45{fill:none;stroke:#CFE0F5;stroke-miterlimit:10;}
</style>
<g>
	<g>
		<g>
			
				<linearGradient id="SVGID_1_" gradientUnits="userSpaceOnUse" x1="303.733" y1="69.3272" x2="303.733" y2="181.6432" gradientTransform="matrix(1 0 0 -1 0 362)">
				<stop  offset="0" style="stop-color:#466DE5"/>
				<stop  offset="1" style="stop-color:#78BFFF"/>
			</linearGradient>
			<path class="st0" d="M275.3,292.7c-1-35.7,7-79.1,35.2-103.7c4.5-4,10.1-9,16.5-8.6c3,0.2,4.5,3.6,4.9,6.1
				c0.8,4.5,0,9.1-1.1,13.6c-6.1,24.6-26.2,67.7-31.3,92.5"/>
		</g>
		<g>
			<g>
				<path class="st1" d="M322.8,190c-10.3,13.4-18,28.7-23.3,44.8c-4.4,13.2-7.2,26.9-8.4,40.7c-0.5,5.5-0.7,11-0.4,16.6
					c0,0.1,0.3,0.2,0.2,0c-0.3-11,0.8-22.2,2.7-33c2.8-15.2,7.4-30.1,14.1-44c4.2-8.8,9.3-17.2,15.2-25
					C323,190,322.9,189.9,322.8,190L322.8,190z"/>
			</g>
		</g>
		<g>
			<g>
				
					<linearGradient id="SVGID_2_" gradientUnits="userSpaceOnUse" x1="324.7411" y1="69.2842" x2="324.7411" y2="147.6431" gradientTransform="matrix(1 0 0 -1 0 362)">
					<stop  offset="0" style="stop-color:#466DE5"/>
					<stop  offset="1" style="stop-color:#78BFFF"/>
				</linearGradient>
				<path class="st2" d="M299.5,292.7c3.8-23.1,7.7-42,21-61.3c5.5-7.9,15.9-17.8,24.3-17c9,0.9,2.6,14.4-2.7,24.5
					c-7.1,13.5-12.3,28.2-14.7,43.2c0.7-4.5,3.9-17.4,13.2-23.2c2.7-1.7,9.5-2.7,9.5,2.9c0,9.8-9.5,21.6-11.9,30.8"/>
			</g>
			<g>
				<g>
					<path class="st1" d="M341.9,221.4c-2.2,2.8-4,5.9-5.8,9c-2.5,4.4-4.7,9-6.8,13.6c-4.7,10.3-8.9,20.9-11.9,31.7
						c-1.5,5.3-2.7,10.7-3.3,16.2c0,0.1,0.2,0.1,0.2,0c1.1-10.4,4.4-20.4,7.9-30.2c3.7-10.1,8.1-20.1,13.2-29.5
						c2-3.7,4.1-7.4,6.7-10.7C342.1,221.5,342,221.4,341.9,221.4L341.9,221.4z"/>
				</g>
			</g>
			<g>
				<g>
					<path class="st1" d="M344.7,262.6c-3.6,3.6-6.1,8.2-8,12.9c-2.3,5.5-3.8,11.3-5,17.1c0,0.1,0.2,0.2,0.2,0
						c1.2-5.6,2.7-11.1,4.8-16.4c1.9-4.9,4.5-9.8,8.2-13.5C344.9,262.7,344.8,262.6,344.7,262.6L344.7,262.6z"/>
				</g>
			</g>
		</g>
	</g>
	<g>
		<g>
			
				<linearGradient id="SVGID_3_" gradientUnits="userSpaceOnUse" x1="130.5338" y1="88.1454" x2="79.1047" y2="139.5745" gradientTransform="matrix(1 0 0 -1 0 362)">
				<stop  offset="0" style="stop-color:#466DE5"/>
				<stop  offset="1" style="stop-color:#78BFFF"/>
			</linearGradient>
			<path class="st3" d="M87.5,292.7c-5.5-45.1-1.5-64.7,3.7-77.2c2.4-5.8,5.8-11.6,10.7-15.7c19.5-16.4,18.9,15.5,18,25.2
				c-2.1,22-7.6,45.6-8.1,67.7"/>
		</g>
		<g>
			
				<linearGradient id="SVGID_4_" gradientUnits="userSpaceOnUse" x1="56.7588" y1="69.3272" x2="56.7588" y2="165.8908" gradientTransform="matrix(1 0 0 -1 0 362)">
				<stop  offset="0" style="stop-color:#466DE5"/>
				<stop  offset="1" style="stop-color:#78BFFF"/>
			</linearGradient>
			<path class="st4" d="M70,292.7c-0.6-14.2-7-28-15-39.5c-8.1-11.5-19.2-20.7-26.5-32.8c-3.9-6.5-10.1-16.7-0.9-22
				c10.1-5.9,25,0.3,33.2,7c8.9,7.3,14.7,17.7,19.6,27.9c8.6,18.1,10.3,39.2,10.4,59.2"/>
		</g>
		<g>
			
				<linearGradient id="SVGID_5_" gradientUnits="userSpaceOnUse" x1="36.4549" y1="65.1537" x2="36.4549" y2="122.225" gradientTransform="matrix(0.9978 6.670000e-02 6.670000e-02 -0.9978 -4.4292 353.9658)">
				<stop  offset="0" style="stop-color:#466DE5"/>
				<stop  offset="1" style="stop-color:#78BFFF"/>
			</linearGradient>
			<path class="st5" d="M71.9,292.7c0-14.4-7.3-29.7-18.9-40.9c-7.6-7.3-16.7-14.3-27-17.3c-5.4-1.6-20.4-4.1-21.9,4.9
				c-0.6,3.4,2.5,9.8,9.8,15.6c10.2,8,38.3,20.6,41.7,37.8"/>
		</g>
		<g>
			<g>
				<path class="st1" d="M11,239.8c8.7,2.4,17,6.5,24.4,11.8c8.5,6.1,15.9,13.8,21,23c3,5.5,5.2,11.6,6.3,17.8c0,0.1,0.2,0.1,0.2,0
					c-1.8-10.9-7-20.8-14.2-29.1c-6.7-7.6-15-13.8-24-18.3c-4.3-2.2-8.9-4-13.6-5.3C10.9,239.6,10.9,239.7,11,239.8L11,239.8z"/>
			</g>
		</g>
		<g>
			<g>
				<path class="st1" d="M32.4,204.1c9.4,5,17.1,13.1,23.3,21.7c8.3,11.5,14.3,24.7,18,38.4c2.5,9.2,4,18.6,4.6,28.1
					c0,0.2,0.3,0.2,0.3,0c-0.9-16.1-4.6-32.2-11.2-46.9c-5.3-11.6-12.4-22.7-21.7-31.6c-4-3.8-8.3-7.2-13.2-9.8
					C32.4,204,32.3,204.1,32.4,204.1L32.4,204.1z"/>
			</g>
		</g>
		<g>
			<g>
				<path class="st1" d="M109.2,199.5c-4.6,11.2-7.3,23.1-9.2,35.1c-1.9,12.4-2.8,25-3.1,37.5c-0.2,6.7-0.2,13.5,0,20.2
					c0,0.2,0.3,0.2,0.3,0c-0.2-12.1,0-24.2,0.8-36.3c0.9-12.6,2.5-25.3,5.5-37.5c1.5-6.4,3.4-12.8,5.9-18.9
					C109.4,199.5,109.3,199.4,109.2,199.5L109.2,199.5z"/>
			</g>
		</g>
	</g>
	<g>
		<g>
			
				<linearGradient id="SVGID_6_" gradientUnits="userSpaceOnUse" x1="34.495" y1="66.6142" x2="50.8874" y2="95.0067" gradientTransform="matrix(1 0 0 -1 0 362)">
				<stop  offset="0" style="stop-color:#466DE5"/>
				<stop  offset="1" style="stop-color:#78BFFF"/>
			</linearGradient>
			<path class="st6" d="M58.2,292.7c-1.8-7.8-3.3-15.9-7.9-22.6c-3-4.4-9.2-10.5-14.7-10.4c-4.1,0.1-5,4-4.6,7.6
				c1.2,9.3,6.4,12.1,8.4,22.2c-1-3.8-7.1-17-12.5-11.9c-5.9,5.5,2.9,15.2,2.9,15.2"/>
		</g>
		<g>
			<g>
				<path class="st1" d="M29.1,280c3.3,3.9,6.2,7.9,7.9,12.8c0,0.1,0.2,0.1,0.2,0C35.9,287.8,32.5,283.6,29.1,280
					C29.2,279.8,29,279.9,29.1,280L29.1,280z"/>
			</g>
		</g>
		<g>
			<g>
				<path class="st1" d="M37.6,265.4c4.1,4.2,6.9,9.6,9.3,14.9c1.8,4,3.3,8.2,4.7,12.3c0,0.1,0.2,0.1,0.2,0
					c-1.3-4.2-2.9-8.4-4.7-12.4C44.7,274.9,41.9,269.5,37.6,265.4C37.7,265.3,37.6,265.4,37.6,265.4L37.6,265.4z"/>
			</g>
		</g>
	</g>
</g>
<g>
	<g>
		<g>
			<line class="st7" x1="216.4" y1="219.2" x2="217.2" y2="219.2"/>
			<path class="st8" d="M218.9,219.2h98.8c15.7,0,28.4-12.7,28.4-28.4s-12.7-28.4-28.4-28.4H101.2c-8.3,0-15.1-6.7-15.1-15.1l0,0
				c0-8.3,6.7-15.1,15.1-15.1h181.9c7.4,0,13.4-6,13.4-13.4c0-7.4-6-13.4-13.4-13.4H116.7c-4,0-7.3-3.3-7.3-7.3c0-4,3.3-7.3,7.3-7.3
				h46.7"/>
			<line class="st7" x1="164.3" y1="90.9" x2="165.1" y2="90.9"/>
		</g>
	</g>
	<g>
		<path class="st9" d="M176.5,67.2c-8.4-1.4-16.4,4.3-17.8,12.7c-0.9,5.2,0.9,10.2,4.4,13.6l-2.1,4.3l4.7-2.2c1.7,1,3.6,1.8,5.6,2.1
			c8.4,1.4,16.4-4.3,17.8-12.7C190.6,76.6,185,68.6,176.5,67.2z"/>
		<path class="st10" d="M167.1,89.7l-1.6-1.9c-0.6-0.7-0.5-1.8,0.2-2.4l1.8-1.5c0.7-0.6,1.8-0.5,2.4,0.2c0,0,0.9,1.3,1.8,1
			c1.1-0.3,3.6-2.1,4.9-3.4c0.9-1-0.6-2.7-0.6-2.7c-0.6-0.7-0.5-1.8,0.2-2.4l1.8-1.5c0.7-0.6,1.8-0.5,2.4,0.2l1.6,1.9
			C185.9,81.3,170.2,93.4,167.1,89.7z"/>
	</g>
	<g>
		<path class="st9" d="M243.9,90.6c2.3-2.2,3.2-4.5,6.4-5.2c0.6-0.1,1.3-0.2,1.9-0.6c1.5-0.9,1.2-3.1,1.5-4.9c0.7-3.4,5.1-5.5,8.4-4
			c1.4,0.6,2.6,1.8,4.1,1.7c3-0.2,2.7-3.9,4.7-6.1c1.9-2,5.9-2.3,8.4-1c1.7,0.9,3.3,2.1,4.4,3.6c1.2,1.6,1.2,4,2.1,5.8
			c0.9,1.7,2.9,2.4,3.8,4.1c0.8,1.5,1,3,0.4,4.5c-1.3,3.1-5.1,5.3-8.5,5.3c-5.5,0-46.2,0-46.2,0S241.3,93.1,243.9,90.6z"/>
	</g>
	<g>
		<path class="st9" d="M133.2,68.7c-1.9-1.8-2.7-3.8-5.4-4.4c-0.6-0.1-1.1-0.2-1.6-0.5c-1.3-0.8-1-2.7-1.3-4.1
			c-0.6-2.9-4.3-4.7-7.1-3.4c-1.2,0.5-2.2,1.5-3.5,1.4c-2.5-0.2-2.2-3.3-4-5.1c-1.6-1.7-5-1.9-7.1-0.9c-1.5,0.7-2.7,1.8-3.7,3
			c-1,1.3-1,3.4-1.8,4.9c-0.7,1.4-2.5,2.1-3.2,3.4c-0.6,1.2-0.9,2.5-0.3,3.8c1.1,2.6,4.3,4.5,7.2,4.5c4.7,0,39,0,39,0
			S135.4,70.7,133.2,68.7z"/>
	</g>
	<g>
		<g>
			<polygon class="st11" points="313.4,110.8 286.2,96.3 293.3,75.1 326.4,92.2 			"/>
			<polygon class="st11" points="326.4,92.2 293.3,75.1 316.9,70.1 			"/>
			
				<rect x="292.3" y="78.2" transform="matrix(0.4598 -0.888 0.888 0.4598 81.9972 321.0106)" class="st12" width="25.2" height="29.8"/>
			<polygon class="st13" points="293.3,75.1 282.3,96.6 303.9,95.2 			"/>
			<polygon class="st13" points="326.4,92.2 315.3,113.7 303.9,95.2 			"/>
			<polygon class="st13" points="315.3,113.7 282.3,96.6 307.3,88.6 			"/>
			<polygon class="st13" points="315.3,113.7 282.3,96.6 305.8,91.5 			"/>
		</g>
	</g>
	<g>
		<g>
			<polygon class="st11" points="95.5,119.8 73.4,125.4 66.8,110.1 93.4,103.1 			"/>
			<polygon class="st11" points="93.4,103.1 66.8,110.1 77.2,95.7 			"/>
			<rect x="71" y="105" transform="matrix(0.9667 -0.256 0.256 0.9667 -26.537 24.8067)" class="st12" width="22" height="18.6"/>
			<polygon class="st13" points="66.8,110.1 71.3,127.5 82.5,115.9 			"/>
			<polygon class="st13" points="93.4,103.1 98,120.4 82.5,115.9 			"/>
			<polygon class="st13" points="98,120.4 71.3,127.5 81.2,110.6 			"/>
			<polygon class="st13" points="98,120.4 71.3,127.5 81.8,113 			"/>
		</g>
	</g>
</g>
<g>
	<g>
		<path class="st14" d="M182.6,89.6l0.8-1.3c0,0-0.2-0.9-0.2-2.1c0-0.5,0.2-1.9,0.4-2c0.2-0.1,0.3,1.2,0.4,1.1
			c0.1,0,0.7-2.5,1.1-2.5c0.2,0-0.5,2.4-0.5,2.4s0.6-2.6,0.9-2.5c0.3,0.1-0.4,2.6-0.4,2.6s0.6-2.4,0.9-2.3c0.3,0.1-0.4,2.4-0.4,2.4
			s0.6-2.1,0.7-1.9c0.2,0.2,0,1.6-0.6,3.6c-0.1,0.3-0.6,1.5-0.6,1.6s-0.6,2.1-0.6,2.1"/>
		<g>
			<g>
				<path class="st15" d="M184,85.6c0.2,0.4,0.5,0.8,0.6,1.2c0.1,0.5,0,0.9-0.1,1.4c0,0,0,0,0,0C184.9,87.2,184.6,86.4,184,85.6
					C184,85.5,184,85.6,184,85.6L184,85.6z"/>
			</g>
		</g>
	</g>
	<g>
		<path class="st16" d="M154.3,244c0,0,4.8,1.8,4.8,3.2c0,0.8-7,0.8-7.4,0.3c-0.7-0.9,0.5-3.2,0.5-3.2L154.3,244z"/>
		<path class="st14" d="M154.2,240.1l0.1,4.1c0,0-0.2,0.6-0.9,0.8c-0.7,0.1-1.2-0.7-1.2-0.7l-0.2-5.1"/>
		
			<linearGradient id="SVGID_7_" gradientUnits="userSpaceOnUse" x1="365.5732" y1="121.7265" x2="365.5732" y2="214.8486" gradientTransform="matrix(-0.8756 2.350000e-02 -2.690000e-02 -0.9996 474.9157 354.5804)">
			<stop  offset="0" style="stop-color:#29225E"/>
			<stop  offset="1" style="stop-color:#3F368C"/>
		</linearGradient>
		<path class="st17" d="M157.5,149.2c0,0,2.6,15.9,1.3,46.3c-0.9,20.7-3.7,45.9-4.7,45.9c-1,0-1.9-0.1-1.9-0.1s-6.5-30.1-7-47
			c-0.7-26.1-7.6-32.1-4.6-45.7"/>
		<polygon class="st18" points="154.8,239.7 154.5,241.5 151.7,241.6 151.5,239.8 		"/>
	</g>
	<g>
		<path class="st16" d="M139.5,244.4c0,0,4.8,1.8,4.8,3.2c0,0.8-7,0.8-7.4,0.3c-0.7-0.9,0.5-3.2,0.5-3.2L139.5,244.4z"/>
		<path class="st14" d="M139.4,240.5l0.1,4.1c0,0-0.2,0.6-0.9,0.8c-0.7,0.1-1.2-0.7-1.2-0.7l-0.2-5.1"/>
		
			<linearGradient id="SVGID_8_" gradientUnits="userSpaceOnUse" x1="376.2199" y1="121.7557" x2="376.2199" y2="214.9039" gradientTransform="matrix(-0.8756 2.350000e-02 -2.690000e-02 -0.9996 474.9157 354.5804)">
			<stop  offset="0" style="stop-color:#29225E"/>
			<stop  offset="1" style="stop-color:#3F368C"/>
		</linearGradient>
		<path class="st19" d="M149,149.5c0,0-1.2,20.1-2.8,43.4c-0.6,9.2-5.9,47.6-6.6,48.9c-1,0-2.6,0.1-2.6,0.1s-4-33.3-4.4-50.2
			c-0.7-26.1-3.5-29.3-0.5-42.8"/>
		<polygon class="st18" points="140,240.1 139.8,241.9 137,242 136.8,240.2 		"/>
		<path class="st20" d="M148.4,159.6c0,0-1,25.8-2.9,40.9"/>
	</g>
	<g>
		<path class="st21" d="M151.8,95.8c-1.6-2.9-6.1-2.4-8.6-1.1c-3.6,1.9-4.5,7.2-7.8,9.5c-1.5,1-3.3,1.6-4.5,3c-1.4,1.6-1.7,4-1,6
			c0.7,2,2.2,3.6,4,4.7c1.8,1.1,3.8,1.7,5.8,2.1c3.2,0.7,6.7,1.2,9.8,0c3.1-1.1,5.9-4,5.9-7.4c0-2.9-1.9-5.6-1.5-8.4"/>
	</g>
	<g>
		
			<linearGradient id="SVGID_9_" gradientUnits="userSpaceOnUse" x1="155.9026" y1="235.5691" x2="198.4381" y2="255.8763" gradientTransform="matrix(1 0 0 -1 0 362)">
			<stop  offset="0" style="stop-color:#FCC73C"/>
			<stop  offset="1" style="stop-color:#FC7A3C"/>
		</linearGradient>
		<path class="st22" d="M182.8,88.6c0,0-8.6,12.3-10.6,15.1c-3,4.4-15.6,5.2-22.3,9.2l-4.6,0.5c-2.2,0.4-9.8,5.9-10.6,8.1
			c-1.6,5-3.3,10.1-3.6,15.3c-0.1,1.8,0,3.6,0,5.4c0.1,2.6,0.2,5.2,0.3,7.7c0,0.2,0,0.3,0.1,0.5c0.1,0.1,0.3,0.2,0.5,0.2
			c8.4,1.9,17.2,0.9,25.8-0.2c0.3,0,0.6-0.1,0.9-0.3c0.3-0.3,0.3-0.7,0.3-1c0-1.6,0-3.3-0.1-4.9c-0.3-7.1,0-14.3,0.8-21.4
			c2.7-1.7,13.7-5.1,17.3-10.3c8.2-11.5,8.2-23.3,8.2-23.3L182.8,88.6z"/>
	</g>
	<g>
		<path class="st14" d="M149.9,112.9l-0.2-5.9l-2.6,0.3l-1.9,6c0,0,0.9,1.2,2.8,1C149.7,114.1,149.9,112.9,149.9,112.9z"/>
	</g>
	<g>
		<path class="st14" d="M144.4,104.6c-0.1-2.3,0.6-4.8,1.8-6.1c1.2-1.4,3.5-1.5,5.2-1.3c0.6,0.1,1.2,0.3,1.6,0.6
			c1.7,1.4,1.5,4.6,1.4,6.5c-0.1,1.6-0.6,3.3-1.6,4.6c-0.3,0.4-0.7,0.8-1.2,1c-1.6,0.6-3.9,0.3-5.2-0.8
			C145,108,144.4,106.2,144.4,104.6z"/>
	</g>
	<g>
		<path class="st21" d="M143.6,106.5c-0.6,0.3-1.6,0.5-2.1-0.2c-0.4-0.6,0-1.3,0.1-1.9c0.4-1.8,1-3.7,1.6-5.5
			c0.3-0.9,0.7-1.8,1.3-2.7c1.1-1.5,4.3-2.3,6.2-2.1c2.1-0.1,5.4,3.3,3.6,7.2c-0.3-0.9-0.6-0.9-1.4-1.7c-0.7,0.7-1.6,1.1-2.6,1.2
			c-1.2,0.1-2.7-0.2-3.6,0.7c-0.9,0.9-0.7,2.5-1.4,3.6C144.9,105.7,144.3,106.2,143.6,106.5z"/>
	</g>
	<g>
		<path class="st14" d="M145.7,105c0.1-0.6-0.3-0.9-0.6-0.9c-0.9-0.1-1.2,1.4-0.9,2.1c0.3,0.5,1,0.9,1.3,0.3"/>
	</g>
	<g>
		<g>
			<g>
				<path class="st21" d="M147.4,108.5c-0.2,0-0.5,0-0.7-0.1c-0.5-0.1-1.3-0.4-1.8-1.2c-0.2-0.3-0.3-0.5-0.3-0.7c0,0,0-0.1,0.1-0.1
					c0,0,0.1,0,0.1,0.1c0,0.2,0.1,0.4,0.3,0.6c0.5,0.7,1.2,0.9,1.7,1.1c0.7,0.2,1.4,0.1,2,0.1c0,0,0.1,0,0.1,0.1c0,0,0,0.1-0.1,0.1
					C148.3,108.5,147.8,108.6,147.4,108.5z"/>
			</g>
			<g>
				<path class="st21" d="M149.2,108.1c-0.2-0.1-0.4-0.1-0.6,0c-0.7,0.2,0,1.1,0.7,0.6c0,0,0.1-0.1,0.1-0.1
					C149.5,108.4,149.4,108.2,149.2,108.1z"/>
			</g>
		</g>
		<g>
			<g>
				<path class="st18" d="M142.8,101.1c0.2-1.5,0.7-3.3,1.7-4.5c1.2-1.5,2.8-2.8,4.4-2.8c1.3,0,1.9,0.3,1.9,0.3
					c-1.6,0.4-3,1.2-4.3,2.5c-1.2,1.3-2,3.2-2.1,5"/>
			</g>
		</g>
		<path class="st18" d="M146.7,103.7c0.2,1.7-0.9,3.3-2.5,3.4s-3-1.1-3.2-2.8c-0.2-1.7,0.9-3.3,2.5-3.4
			C145.1,100.7,146.5,101.9,146.7,103.7z"/>
		<path class="st23" d="M145.4,103.9c0.1,1.2-0.6,2.2-1.6,2.4c-1,0.1-2-0.8-2.1-2c-0.1-1.2,0.6-2.2,1.6-2.4
			C144.3,101.9,145.2,102.8,145.4,103.9z"/>
	</g>
</g>
<g>
	
		<linearGradient id="SVGID_10_" gradientUnits="userSpaceOnUse" x1="251.568" y1="36.06" x2="140.9346" y2="227.6826" gradientTransform="matrix(1 0 0 -1 0 362)">
		<stop  offset="0" style="stop-color:#B3D3F4"/>
		<stop  offset="1" style="stop-color:#D3DCED"/>
	</linearGradient>
	<polygon class="st24" points="202.4,98.8 106.3,183 106.3,298.8 298.6,298.8 298.6,183 	"/>
	
		<linearGradient id="SVGID_11_" gradientUnits="userSpaceOnUse" x1="202.4416" y1="75.1694" x2="202.4416" y2="233.5531" gradientTransform="matrix(1 0 0 -1 0 362)">
		<stop  offset="0" style="stop-color:#FFD5A7"/>
		<stop  offset="0.372" style="stop-color:#FFD7AA"/>
		<stop  offset="0.6545" style="stop-color:#FFDEB4"/>
		<stop  offset="0.9067" style="stop-color:#FFE9C4"/>
		<stop  offset="1" style="stop-color:#FFEECC"/>
	</linearGradient>
	<rect x="116" y="128.4" class="st25" width="172.9" height="158.4"/>
	<g>
		<rect x="125.9" y="149" class="st26" width="153.1" height="13.5"/>
		<rect x="125.9" y="168.9" class="st26" width="153.1" height="13.5"/>
		<rect x="125.9" y="188.8" class="st26" width="153.1" height="80.4"/>
		<text transform="matrix(1 0 0 1 130.873 157.2964)" class="st27 st28 st29">name</text>
		<text transform="matrix(1 0 0 1 130.873 177.6279)" class="st27 st28 st29">Email</text>
		<text transform="matrix(1 0 0 1 130.873 197.4697)" class="st27 st28 st29">mesage</text>
		<text transform="matrix(1 0 0 1 180.1265 142.6377)" class="st27 st28 st30">contact us</text>
	</g>
	<polygon class="st31" points="202.4,256.5 106.3,183 106.3,286.8 298.6,286.8 298.6,183 	"/>
	
		<linearGradient id="SVGID_12_" gradientUnits="userSpaceOnUse" x1="251.568" y1="36.06" x2="153.358" y2="206.1645" gradientTransform="matrix(1 0 0 -1 0 362)">
		<stop  offset="0" style="stop-color:#CDE8FF"/>
		<stop  offset="1" style="stop-color:#EEE7E9"/>
	</linearGradient>
	<polygon class="st32" points="202.4,268.5 106.3,183 106.3,298.8 298.6,298.8 298.6,183 	"/>
	<polygon class="st33" points="202.4,208.1 106.3,298.8 298.6,298.8 	"/>
	
		<linearGradient id="SVGID_13_" gradientUnits="userSpaceOnUse" x1="250.543" y1="15.1472" x2="154.383" y2="111.3072" gradientTransform="matrix(1 0 0 -1 0 362)">
		<stop  offset="0" style="stop-color:#CDE8FF"/>
		<stop  offset="1" style="stop-color:#EEE7E9"/>
	</linearGradient>
	<polygon class="st34" points="202.4,217 106.3,298.8 298.6,298.8 	"/>
</g>
<g>
	<g>
		<path class="st14" d="M138.3,140.8c0,0,1.2,0.9,1.6,0.9c0.4,0,1.4-0.3,2.6-0.2c0.5,0,1.9,0.3,2,0.6c0.1,0.2-1.2,0.2-1.2,0.3
			c0,0.1,2.5,1,2.4,1.4c0,0.2-2.4-0.7-2.4-0.7s2.6,0.9,2.4,1.2c-0.1,0.3-2.6-0.7-2.6-0.7s2.3,0.9,2.2,1.1c-0.1,0.3-2.4-0.4-2.4-0.4
			s2,0.4,1.9,0.7c0,0.1-2.2-0.2-4.1-0.9c-1.7-0.6-3.1-1.7-3.1-1.7"/>
	</g>
	<g>
		
			<linearGradient id="SVGID_14_" gradientUnits="userSpaceOnUse" x1="143.335" y1="239.724" x2="118.5545" y2="216.3203" gradientTransform="matrix(1 0 0 -1 0 362)">
			<stop  offset="0" style="stop-color:#FCC73C"/>
			<stop  offset="1" style="stop-color:#FC7A3C"/>
		</linearGradient>
		<path class="st35" d="M139.1,123.2c-2.1,3.3-7.1,7.1-9.9,9.4c1.6,2.1,10.5,8.8,10.5,8.8l-0.8,2c0,0-17.1-3-17.6-11.5
			c-0.3-5,6.1-12.5,11-15.9c4.6-3.3,10.1-3.8,12.9-2.7"/>
	</g>
</g>
<g>
	<g>
		<g>
			<path class="st36" d="M59.4,305.6c0,0-5.9,1.8-5.9,3.1c0,0.8,8.6,0.6,9.1,0c0.8-0.8-0.6-3.4-0.6-3.4L59.4,305.6z"/>
			<path class="st14" d="M59.4,301.9v3.9c0,0,0.2,0.6,1.1,0.7c0.9,0.1,1.5-0.7,1.5-0.7l0.1-4.8"/>
			
				<linearGradient id="SVGID_15_" gradientUnits="userSpaceOnUse" x1="63.2094" y1="58.9744" x2="63.2094" y2="172.0382" gradientTransform="matrix(1 0 0 -1 0 362)">
				<stop  offset="0" style="stop-color:#29225E"/>
				<stop  offset="1" style="stop-color:#3F368C"/>
			</linearGradient>
			<path class="st37" d="M61.4,195.9c-4,5.1-8.6,19.5-8.6,46.9c0,19.4,6.3,59.9,6.3,59.9l3.6,0.3c11.5-72.5,7.6-71.7,10.5-84.6
				c1.8-8.1-1.8-28.4-1.8-28.4"/>
			
				<linearGradient id="SVGID_16_" gradientUnits="userSpaceOnUse" x1="69.2147" y1="111.7317" x2="69.2147" y2="137.1624" gradientTransform="matrix(1 0 0 -1 0 362)">
				<stop  offset="0" style="stop-color:#29225E"/>
				<stop  offset="1" style="stop-color:#3F368C"/>
			</linearGradient>
			<path class="st38" d="M70.9,241.4c0,0-2.5-13.7-2.5-16.6c-1.1,5.6-1.1,12.9,0,18c0.8,3.7,1.6,7.4,1.6,7.4L70.9,241.4z"/>
			<path class="st18" d="M58.9,301.7v1.5c0,0,3.7,0.6,3.7,0.4c0-0.2,0.2-1.8,0.2-1.8L58.9,301.7z"/>
		</g>
		<g>
			<path class="st36" d="M90.7,305.6c0,0,5.9,1.8,5.9,3.1c0,0.8-8.6,0.6-9.1,0c-0.8-0.8,0.6-3.4,0.6-3.4L90.7,305.6z"/>
			<path class="st14" d="M90.1,301.9l0.6,3.9c0,0-0.2,0.6-1.1,0.7c-0.9,0.1-1.5-0.7-1.5-0.7l-0.7-4.8"/>
			
				<linearGradient id="SVGID_17_" gradientUnits="userSpaceOnUse" x1="79.2558" y1="59.0174" x2="79.2558" y2="172.0381" gradientTransform="matrix(1 0 0 -1 0 362)">
				<stop  offset="0" style="stop-color:#29225E"/>
				<stop  offset="1" style="stop-color:#3F368C"/>
			</linearGradient>
			<path class="st39" d="M80.4,193.6c3.9,6.5,10.8,20,10.8,47.4c0,19.4-0.5,61.7-0.5,61.7l-3.1,0.3c-9.9-27.7-18.2-62.9-20.1-83.5
				c-0.8-8.2,0.7-29.6,0.7-29.6"/>
			
				<linearGradient id="SVGID_18_" gradientUnits="userSpaceOnUse" x1="71.3572" y1="159.7338" x2="71.3572" y2="170.6559" gradientTransform="matrix(1 0 0 -1 0 362)">
				<stop  offset="0" style="stop-color:#29225E"/>
				<stop  offset="1" style="stop-color:#3F368C"/>
			</linearGradient>
			<path class="st40" d="M80.9,194.4c-3.5-1.1-8.2-2.2-12.8-3c0,0.2,0,0.3,0,0.5l-6.7,4c-0.8,1-1.6,2.5-2.4,4.3
				c2,0.8,4.9,1.6,8.7,1.9c5.6,0.5,12.6-0.6,16.2-2.3C82.8,197.7,81.8,195.8,80.9,194.4z"/>
			<path class="st18" d="M91.2,301.4v1.5c0,0-4,0.6-4,0.4c0-0.2-0.2-1.8-0.2-1.8L91.2,301.4z"/>
		</g>
	</g>
	<g>
		<g>
			<path class="st14" d="M111.2,179.2l1.3-0.7c0,0,0.2-0.9,0.7-1.8c0.2-0.4,1-1.5,1.2-1.5c0.2,0-0.3,1.1-0.2,1.1
				c0.1,0,1.8-1.8,2.1-1.5c0.2,0.1-1.5,1.8-1.5,1.8s1.7-1.9,1.9-1.7c0.2,0.2-1.5,2-1.5,2s1.6-1.7,1.8-1.5c0.2,0.2-1.4,1.8-1.4,1.8
				s1.4-1.4,1.5-1.3c0.1,0.3-0.7,1.3-2.1,2.7c-0.3,0.3-1.2,0.9-1.2,1c0,0-1.5,1.5-1.5,1.5"/>
			<g>
				<g>
					<path class="st15" d="M114.3,176.5c0,0.4,0.1,0.9,0,1.3c-0.1,0.5-0.4,0.8-0.8,1.1c0,0,0,0.1,0,0
						C114.3,178.3,114.4,177.5,114.3,176.5C114.3,176.5,114.2,176.5,114.3,176.5L114.3,176.5z"/>
				</g>
			</g>
		</g>
		<g>
			<path class="st14" d="M28.2,155l-0.9-1.2c0,0,0.2-0.9,0.1-2c0-0.5-0.3-1.8-0.5-1.8c-0.2-0.1-0.2,1.1-0.3,1.1
				c-0.1,0-0.9-2.3-1.2-2.3c-0.2,0,0.6,2.2,0.6,2.2s-0.8-2.4-1.1-2.3c-0.3,0.1,0.6,2.4,0.6,2.4s-0.8-2.2-1-2.1s0.6,2.2,0.6,2.2
				s-0.7-1.9-0.9-1.8c-0.2,0.2,0.1,1.5,0.9,3.3c0.1,0.3,0.7,1.3,0.7,1.4c0,0.1,0.7,2,0.7,2"/>
			<g>
				<g>
					<path class="st15" d="M26.5,151.3c-0.5,0.9-0.7,1.6-0.2,2.5c0,0,0.1,0,0,0c-0.2-0.5-0.3-0.9-0.3-1.4
						C26.1,152,26.3,151.6,26.5,151.3C26.5,151.3,26.5,151.3,26.5,151.3L26.5,151.3z"/>
				</g>
			</g>
		</g>
		<g>
			
				<linearGradient id="SVGID_19_" gradientUnits="userSpaceOnUse" x1="69.5315" y1="193.657" x2="69.5315" y2="162.019" gradientTransform="matrix(1 0 0 -1 0 362)">
				<stop  offset="0" style="stop-color:#FCC73C"/>
				<stop  offset="1" style="stop-color:#FC7A3C"/>
			</linearGradient>
			<path class="st41" d="M112.1,178.6c0,0-12.8,4.7-15.8,4.7c-2.4,0-6.5-6.5-12.2-11c-3.5-2.7-7.6-4.3-7.6-4.3l-10.7-0.2
				c-2,0-6.1,0.3-9.8,0.8c-5.3,0.7-10.4,0.5-12.7-0.6c-4.5-2-15.8-14.1-15.8-14.1s-1.1-0.2-2.1,0.7c0,0.6,5.8,17.2,13.4,22.1
				c5.6,3.7,13.8,4.3,18.9,4.2c0,1.2,0,2.2,0,3.4c0,1.7-2,10,0.4,12.3c2.2,2.2,10.5,2.4,13.7,2.4c4.8,0,9.8-0.8,11-2.4
				c0.6-0.9,0.5-4.6,0.3-8.1c3.9,2.4,7.3,4.9,11.8,4.9c8.3,0,18.1-13,18.1-13L112.1,178.6z"/>
			
				<linearGradient id="SVGID_20_" gradientUnits="userSpaceOnUse" x1="81.7529" y1="174.9494" x2="81.7529" y2="170.726" gradientTransform="matrix(1 0 0 -1 0 362)">
				<stop  offset="0" style="stop-color:#FCC73C"/>
				<stop  offset="1" style="stop-color:#FC7A3C"/>
			</linearGradient>
			<polygon class="st42" points="83.6,191.2 83.5,188.8 79.9,185.2 			"/>
			
				<linearGradient id="SVGID_21_" gradientUnits="userSpaceOnUse" x1="56.0525" y1="183.4863" x2="58.7745" y2="183.4863" gradientTransform="matrix(1 0 0 -1 0 362)">
				<stop  offset="0" style="stop-color:#FCC73C"/>
				<stop  offset="1" style="stop-color:#FC7A3C"/>
			</linearGradient>
			<path class="st43" d="M58.1,181.1c0-0.4,0.7-4.6,0.7-5.2c-1.1,2.3-2.7,5.2-2.7,5.2H58.1z"/>
		</g>
	</g>
	<g>
		<g>
			<path class="st44" d="M74.8,148.9c3,1.9,2.5,5.8,3.7,8.2c0.9,1.8,2.3,3.2,2.4,5.3c0.1,2.3-2.8,3.3-4.4,3.1
				c-3.1-0.5-5.7,1.1-8.8,0.7c-2.1-0.3-1.3-1.3-2.7-3c-0.8-1-1.2-2.3-1.4-3.5c-0.1-1.3,0-2.6,0.3-3.8"/>
		</g>
		<path class="st14" d="M69.2,162l-0.6,5.5l-2.7,0.4c0,0,1.9,3.4,4.9,3.4c3,0,5.8-3.2,5.8-3.2l-2.9-0.9l-1.1-7.8"/>
		<g>
			<path class="st14" d="M64.8,152.9c-0.2,1.8-0.3,3.7,0,5.6c0.4,1.8,1.5,3.6,3.2,4.3c0.8,0.3,1.6,0.4,2.5,0.5c1.4,0,2.9-0.1,4-0.9
				c1.3-1,1.8-2.8,1.7-4.5c-0.1-1.6-0.7-3.2-1.4-4.8c-0.6-1.4-1.2-2.8-1.8-4.3"/>
		</g>
		<g>
			<path class="st44" d="M57.8,160.3c-0.6,0.7-1.3,1.5-1.4,2.4c-0.1,0.9,0.5,1.8,1.3,2.2c0.7,0.3,1.5,0.2,2.2,0.2
				c0.9,0,1.7,0,2.6,0.1c0.7,0.1,1.4,0.4,2.1,0.6c1,0.3,2.1,0.5,3.2,0.3c0.2,0,0.4-0.1,0.5-0.3c0.1-0.2,0-0.4-0.1-0.6
				c-0.6-1.4-0.7-3-0.6-4.6c0-0.8,0.2-1.6,0.4-2.4c0.2-0.6,0.4-1.2,0.7-1.8c0.5-1.2,1.2-2.3,1.7-3.4c0.5-1.2,0.8-3,2.4-2.7
				c1,0.2,1.5,1.8,2.2,2.9c1-1.2,2.2-1.9,0-4.7c-1.1-1.4-3-1.3-4.6-1c-0.9,0-0.9-0.4-1.8-0.5c-3-0.2-6.4,1.9-7.7,4.7
				C59.6,154.7,59.9,157.8,57.8,160.3z"/>
		</g>
		<g>
			<g>
				<g>
					<path class="st21" d="M68.4,161.3c-0.2,0-0.5,0-0.7-0.1c-0.5-0.1-1.3-0.4-1.8-1.2c-0.2-0.3-0.3-0.5-0.3-0.7c0,0,0-0.1,0.1-0.1
						c0,0,0.1,0,0.1,0.1c0,0.2,0.1,0.4,0.3,0.6c0.5,0.6,1.2,0.9,1.7,1.1c0.7,0.2,1.4,0.1,2,0.1c0,0,0.1,0,0.1,0.1c0,0,0,0.1-0.1,0.1
						C69.3,161.3,68.8,161.3,68.4,161.3z"/>
				</g>
				<g>
					<path class="st21" d="M70.2,160.9c-0.2-0.1-0.4-0.1-0.6,0c-0.7,0.2,0,1.1,0.7,0.6c0,0,0.1-0.1,0.1-0.1
						C70.5,161.2,70.4,161,70.2,160.9z"/>
				</g>
			</g>
			<g>
				<g>
					<path class="st21" d="M63.8,154c0.2-1.5,0.7-3.2,1.7-4.4c1.2-1.5,2.8-2.7,4.4-2.7c1.3,0,1.9,0.3,1.9,0.3
						c-1.6,0.4-3,1.2-4.3,2.4c-1.2,1.3-2,3.1-2.1,4.9"/>
				</g>
			</g>
			<path class="st21" d="M67.7,156.5c0.2,1.7-0.9,3.2-2.5,3.4c-1.6,0.2-3-1.1-3.2-2.8c-0.2-1.7,0.9-3.2,2.5-3.4
				C66.1,153.6,67.6,154.9,67.7,156.5z"/>
			<path class="st23" d="M66.4,156.8c0.1,1.2-0.6,2.2-1.6,2.3c-1,0.1-2-0.7-2.1-1.9c-0.1-1.2,0.6-2.2,1.6-2.3
				C65.3,154.8,66.2,155.6,66.4,156.8z"/>
		</g>
	</g>
</g>
<path class="st45" d="M49.9,141.6l1.3,4.7c0.1,0.5,0.8,0.7,1.2,0.3l3.1-2.9c0.4-0.3,0.3-1-0.2-1.2l-4.5-1.8
	C50.3,140.6,49.8,141.1,49.9,141.6z"/>
<rect x="103.9" y="152.4" transform="matrix(0.9317 -0.3632 0.3632 0.9317 -48.6852 48.7333)" class="st11" width="2.8" height="2.8"/>
</svg>
