<svg width="1194" height="641" xmlns="http://www.w3.org/2000/svg" xmlns:xlink="http://www.w3.org/1999/xlink"><defs><linearGradient x1="49.383%" y1="57.919%" x2="50.999%" y2="33.391%" id="c"><stop stop-color="#E8F0F8" offset="0%"/><stop stop-color="#FFF" offset="100%"/></linearGradient><path id="b" d="M328.36 36.616l.567 14.11-23.355 13.338-21.445-1.016L266.404 68v28.403l-4.79 19.743-21.353 3.068-17.538 1.16 8.208-20.589 3.646-20.62V61.021l-24.406 12.73-7.235 9.508-30.176 2.546v19.657h28.48l-4.067 11.61-12.452 13.587 7.813 10.537-3.465 17.718-19.311 4.564-5.518-9.612-42.05 5.653v20.11l9.557 9.195 6.023 7.079-29.586 10.62-22.892 12.293-31.043 4.569-21.513 10.536-10.781 17.662L0 257v20.07l5.805 22.618 10.32 16.126 43.52 3.78 25.645-1.276 6.871 8.516 28.53 7.705-20.745 21.21-11.333 48.196-10.942 10.777-22.129 21.085L46.964 485v19.373l44.579 9.004 29.751-8.59 57.895-4.832 23.747-25.075 58.678-27.671 10.334-32.662 17.904-10.543 49.172-15.143 38.73-8.433 18.043-21.49v-18.931l18.16 2.897 40.823-12.728 22.131-12.08 38.164 9.998 17.562 23.577-.017 25.324 13.796 23.805 11.259 18.711 38.006 2.208-.548-20.919-7.6-16.51 31.287-14.81 42.509 4.599 21.925 23.907 23.452 24.566 23.52 6.994 29.463 13.4 30.086-15.56V407.8l26.47-14.52 23.281-8.99 38.064-12.977v-19.643l-11.135-11.664 22.675-3.208 182.1-6.081V311L843.621 126.33l-52.599-44.907-24.646-15.831-27.283-1.322-17.927 5.171-35.315 2.154-21.666-4.913-32.46 6.96-40.192-6.607-28.951 16.225-32.365-1.577-33.575-8.478L454.325 78l-12.718-7.444-9.743-14.985-18.698-15.026-21.415-10.093L360.095 29z"/><filter x="-10.5%" y="-23.5%" width="120.9%" height="153.3%" filterUnits="objectBoundingBox" id="a"><feOffset dy="2" in="SourceAlpha" result="shadowOffsetOuter1"/><feColorMatrix values="0 0 0 0 0.580392157 0 0 0 0 0.635294118 0 0 0 0 0.682352941 0 0 0 0.2 0" in="shadowOffsetOuter1" result="shadowMatrixOuter1"/><feOffset dy="4" in="SourceAlpha" result="shadowOffsetOuter2"/><feGaussianBlur stdDeviation="2" in="shadowOffsetOuter2" result="shadowBlurOuter2"/><feColorMatrix values="0 0 0 0 0.745098039 0 0 0 0 0.792156863 0 0 0 0 0.831372549 0 0 0 0.3 0" in="shadowBlurOuter2" result="shadowMatrixOuter2"/><feOffset dy="-2" in="SourceAlpha" result="shadowOffsetOuter3"/><feGaussianBlur stdDeviation="32" in="shadowOffsetOuter3" result="shadowBlurOuter3"/><feColorMatrix values="0 0 0 0 0.745098039 0 0 0 0 0.792156863 0 0 0 0 0.831372549 0 0 0 0.6 0" in="shadowBlurOuter3" result="shadowMatrixOuter3"/><feOffset dy="46" in="SourceAlpha" result="shadowOffsetOuter4"/><feGaussianBlur stdDeviation="25" in="shadowOffsetOuter4" result="shadowBlurOuter4"/><feColorMatrix values="0 0 0 0 0.143181163 0 0 0 0 0.255266301 0 0 0 0 0.301419005 0 0 0 0.0531306612 0" in="shadowBlurOuter4" result="shadowMatrixOuter4"/><feMerge><feMergeNode in="shadowMatrixOuter1"/><feMergeNode in="shadowMatrixOuter2"/><feMergeNode in="shadowMatrixOuter3"/><feMergeNode in="shadowMatrixOuter4"/></feMerge></filter><linearGradient x1="47.024%" y1="61.605%" x2="41.139%" y2="51.542%" id="d"><stop stop-color="#FFF" stop-opacity="0" offset="0%"/><stop stop-color="#FFF" stop-opacity=".264" offset="51.565%"/><stop stop-color="#FFF" stop-opacity="0" offset="100%"/></linearGradient><ellipse id="f" cx="364" cy="126.5" rx="10" ry="8.5"/><filter x="-92.5%" y="-67.6%" width="285%" height="317.6%" filterUnits="objectBoundingBox" id="e"><feOffset dy="7" in="SourceAlpha" result="shadowOffsetOuter1"/><feGaussianBlur stdDeviation="5" in="shadowOffsetOuter1" result="shadowBlurOuter1"/><feColorMatrix values="0 0 0 0 0.0352941176 0 0 0 0 0.145098039 0 0 0 0 0.250980392 0 0 0 0.221891984 0" in="shadowBlurOuter1"/></filter><ellipse id="h" cx="210" cy="226" rx="10" ry="9"/><filter x="-92.5%" y="-63.9%" width="285%" height="305.6%" filterUnits="objectBoundingBox" id="g"><feOffset dy="7" in="SourceAlpha" result="shadowOffsetOuter1"/><feGaussianBlur stdDeviation="5" in="shadowOffsetOuter1" result="shadowBlurOuter1"/><feColorMatrix values="0 0 0 0 0.0352941176 0 0 0 0 0.145098039 0 0 0 0 0.250980392 0 0 0 0.221891984 0" in="shadowBlurOuter1"/></filter><ellipse id="j" cx="32" cy="100" rx="10" ry="8"/><filter x="-92.5%" y="-71.9%" width="285%" height="331.2%" filterUnits="objectBoundingBox" id="i"><feOffset dy="7" in="SourceAlpha" result="shadowOffsetOuter1"/><feGaussianBlur stdDeviation="5" in="shadowOffsetOuter1" result="shadowBlurOuter1"/><feColorMatrix values="0 0 0 0 0.0830053386 0 0 0 0 0.193710738 0 0 0 0 0.300462372 0 0 0 0.221891984 0" in="shadowBlurOuter1"/></filter><ellipse id="l" cx="641" cy="340" rx="10" ry="9"/><filter x="-92.5%" y="-63.9%" width="285%" height="305.6%" filterUnits="objectBoundingBox" id="k"><feOffset dy="7" in="SourceAlpha" result="shadowOffsetOuter1"/><feGaussianBlur stdDeviation="5" in="shadowOffsetOuter1" result="shadowBlurOuter1"/><feColorMatrix values="0 0 0 0 0.0352941176 0 0 0 0 0.145098039 0 0 0 0 0.250980392 0 0 0 0.221891984 0" in="shadowBlurOuter1"/></filter></defs><g fill="none" fill-rule="evenodd"><g fill-rule="nonzero" transform="translate(62 35)"><use fill="#000" filter="url(#a)" xlink:href="#b"/><use fill="url(#c)" xlink:href="#b"/></g><path fill="#FFF" fill-rule="nonzero" d="M390.36 52.616l.567 14.11-23.355 13.338-21.445-1.016-18.407 24.204 4.95 16.514-9.056 12.38-21.353 3.068-17.538 1.16 8.208-20.589 3.646-20.81-2.849-11.637-21.557 6.414-2.84 20.147-16.354 2.583-18.217 8.981 28.892 1.42-4.479 10.19-12.452 13.587 7.813 10.537-3.465 17.718-19.311 4.564-5.518-9.612-20.533 2.728-21.517 23.035 9.557 9.195 6.023 7.079-29.586 10.62-22.892 12.293-31.043 4.569-21.513 10.536-10.781 17.662L62 293.07l5.805 22.618 10.32 16.126 43.52 3.78 25.645-1.276 6.871 8.516 28.53 7.705-20.745 21.21-11.333 48.196-10.942 10.777-22.129 21.085-6.146 37.459-2.432 31.107 44.579 9.004 29.751-8.59 57.895-4.832 23.747-25.075 58.509-22.599 10.503-37.734 17.904-10.543 49.172-15.143 38.73-8.433 18.043-21.49-30.165-1.713-2.183-15.128 50.508.807 40.823-12.728 22.131-12.08 38.164 9.998 17.562 23.577-.017 25.324 13.796 23.805 11.259 18.711 38.006 2.208-.548-10.31-9.63-29.33 32.536-15.907 43.29 7.907 21.925 23.907 23.452 24.566 23.52 6.994 29.463 13.4 30.086-15.56-5.723-23.58 32.193-10.526 23.281-8.99 38.064-12.976-11.135-31.307 22.675-3.208 182.1-6.081L905.621 142.33l-52.599-44.907-24.646-15.831-27.283-1.322-17.927 5.171-35.315 2.154-21.666-4.913-32.46 6.96-40.192-6.607-28.951 16.225-32.365-1.577-33.575-8.478L516.325 94l-12.718-7.444-9.743-14.985-18.698-15.026-21.415-10.093L422.095 45z"/><path d="M328.876 18.006l.563 14.004-23.745 13.56-21.329-1.01-18.093 23.792 4.948 16.509-9.326 12.75-.209.03-21.391 3.072-18.329 1.213 8.482-21.278 3.62-20.655-2.7-11.026-20.746 6.173-2.847 20.195-16.644 2.629-16.418 8.094 27.69 1.36-4.771 10.857-.09.137-12.173 13.281 7.699 10.383-3.569 18.251-19.988 4.725-5.537-9.645-20.023 2.66-21.058 22.544 9.236 8.89 6.491 7.63-.68.244-29.518 10.59-22.892 12.292-.164.055-30.966 4.557-21.312 10.438-10.754 17.604L.55 258.199l5.72 22.287 10.144 15.852 43.208 3.758 25.898-1.29 6.93 8.588 29.196 7.885-21.244 21.72-11.334 48.2-.103.102-10.948 10.783-22.007 20.969-6.115 37.252-2.397 30.666 44.025 8.892 29.73-8.575 57.705-4.816 23.616-24.936.183-.123 58.274-22.508 10.49-37.686 18.078-10.646.106-.047 49.213-15.154 38.564-8.396 17.292-20.595-29.577-1.68-2.326-16.113 51.015.815 40.655-12.666 22.306-12.176 38.525 10.094 17.766 23.85-.016 25.355 13.723 23.683 11.123 18.484 37.185 2.16-.515-9.684-9.744-29.682 33.075-16.17 43.616 7.966.113.124 21.918 23.9 23.361 24.47 23.457 6.98 29.242 13.3 29.521-15.27-5.739-23.647.44-.144 32.167-10.516 23.3-8.997 37.585-12.813-11.17-31.407.606-.085 22.729-3.213 180.857-6.04-226.675-203.548-52.544-44.867-24.534-15.76-27.067-1.31-17.847 5.148-.108.018-35.315 2.154-.14-.011-21.56-4.889-32.352 6.937-.186.005-40.018-6.58-28.924 16.21-.143-.007-32.463-1.592-33.488-8.455-42.391 4.805-12.964-7.588-9.764-15.017-18.589-14.94-21.271-10.024-31.486-1.445-31.266 7.503z" stroke="url(#d)" opacity=".2" transform="translate(62 35)"/><g fill-rule="nonzero" transform="translate(266 66)"><use fill="#000" filter="url(#e)" xlink:href="#f"/><use fill="#FFF" xlink:href="#f"/></g><text transform="translate(447 311)" fill="#092540" font-family="Avenir-Heavy, Avenir, Arial, sans-serif" font-size="18" font-weight="600" letter-spacing="-.438"><tspan x=".146" y="18.52">Cyprus</tspan></text><text transform="translate(600 208)" fill="#092540" font-family="Avenir-Heavy, Avenir, Arial, sans-serif" font-size="18" font-weight="600" letter-spacing="-.438"><tspan x=".003" y="18">Moscow</tspan></text><g fill-rule="nonzero" transform="translate(266 66)"><use fill="#000" filter="url(#g)" xlink:href="#h"/><use fill="#FFF" xlink:href="#h"/></g><text font-family="Avenir-Heavy, Avenir, Arial, sans-serif" font-size="18" font-weight="600" letter-spacing="-.438" fill="#092540" transform="translate(266 66)"><tspan x=".662" y="134.52">London</tspan></text>
<text font-family="Avenir-Heavy, Avenir, Arial, sans-serif" font-size="18" font-weight="600" letter-spacing="-.438" fill="#092540" transform="translate(266 66)"><tspan x="596.822" y="378.52">Hong Kong</tspan></text><g fill-rule="nonzero" transform="translate(266 66)"><use fill="#000" filter="url(#i)" xlink:href="#j"/><use fill="#FFF" xlink:href="#j"/></g><g fill-rule="nonzero" transform="translate(266 66)"><use fill="#000" filter="url(#k)" xlink:href="#l"/><use fill="#FFF" xlink:href="#l"/></g></g>
	<path id="line-2-1" class="st1" d="M299.1,166.1c31.1-8.5,58-13.1,78.6-15.7c16.6-2.1,37.3-4.6,65.1-4.1c21.6,0.4,38,2.5,49.7,4.1
		c16.8,2.2,34.4,4.6,56.9,11.1c6.6,1.9,18.8,5.7,33.5,11.8c7.7,3.2,18.2,7.6,31,15.2c4.1,2.4,7.5,4.6,9.9,6.1"/>
	<path id="line-3-1" class="st1" d="M296.4,170c16.3,4.5,59,9.2,104.1,39.6c39.7,26.7,62.3,63.6,73.9,81.5"/>
	<path id="line-3" class="st10" d="M297.2,168c12.1-2.4,59.7-10.2,107.5,18.2c59.3,35.3,70.7,98.1,72.3,107.3"/>
	<path id="line-2" class="st10" d="M300.9,166.2c20.7-13,79.1-45.6,159.4-41.6c88.7,4.4,147.4,50.8,165.2,66.1"/>
	<path id="line-1-1" class="st1" d="M294.7,164.9c29.8-13.9,56-23.5,76.4-30.1c15.4-5,33.7-10.9,58.8-15.8
		c17.9-3.5,31.8-5.1,44.6-6.5c20.8-2.3,37-4.1,58.9-3.9c24.7,0.3,43.6,3,57.5,5c22.6,3.3,39.5,7.4,45.7,9
		c9.4,2.4,22.7,5.8,39.2,11.8c11.1,4.1,36.5,14.1,66.1,32.8c6.1,3.9,20.3,13.1,37.1,27c20.2,16.8,34,31.8,39.8,38.2
		c6.3,7,17.2,19.9,29.1,37.5c3.8,5.5,14.8,22.1,26.2,45.5c1.9,3.8,9.4,19.3,17.2,40.7c6.3,17.3,10.8,32.7,13.9,45.3"/>
	<path id="line-1" class="st10" d="M300.2,164.1c26.6-23.7,83.1-67.5,167.7-87.5c98.6-23.2,177.7-0.4,199,6.4
		c25.5,8.1,86.8,28.3,141.1,84c36.9,37.8,56,77.2,63.9,93.8c15.7,33,22.9,60.7,25.6,72.3c6.1,26.1,8.3,49.1,9,67"/>
<style>
#line-3, #line-2, #line-1, #line-1-1, #line-2-1, #line-3-1 {
  stroke-dasharray: 1000;
  stroke-dashoffset: 1000;
  animation: dash 3s linear infinite;
}

@keyframes dash {
  from {
    stroke-dashoffset: 1000;
  }
  to {
    stroke-dashoffset: 0;
  }
}

	.st0{fill:none;stroke:#316DA8;stroke-width:7;stroke-opacity:0.103;}
	
		.st1{fill:none;stroke:#316DA8;stroke-width:7;stroke-linecap:round;stroke-linejoin:round;stroke-opacity:0.103;stroke-dasharray:6,4;}

	.st10{fill:none;stroke:#2DABE7;stroke-width:6;stroke-linecap:round;stroke-linejoin:round;stroke-dasharray:0,4;}

</style>
</svg>